# xmcd
#
# Track frame offsets:
#	150
#	27572
#	60939
#	104676
#	126028
#	181441
#	202632
#	259838
#
# Disc length: 4068 seconds
#
# Revision: 1
# Processed by: cddbd v1.5.2PL0 Copyright (c) Steve Scherf et al.
# Submitted via: audiograbber 1.83.01
#
DISCID=690fe208
DTITLE=Grateful Dead - 92-03-20 Copps Coliseum, Hamilton, Ontario, Canada
DYEAR=1900
DGENRE=
TTITLE0=Hell In A Bucket
TTITLE1=Althea
TTITLE2=The Same Thing
TTITLE3=Mexicali Blues
TTITLE4=Bird Song
TTITLE5=Promised Land
TTITLE6=Shakedown Street
TTITLE7=Men Smart Women Smarter
EXTD=
EXTT0=
EXTT1=
EXTT2=
EXTT3=
EXTT4=
EXTT5=
EXTT6=
EXTT7=
PLAYORDER=
